<svg width="20" height="20" viewBox="0 0 20 20" fill="none" xmlns="http://www.w3.org/2000/svg">
<path fill-rule="evenodd" clip-rule="evenodd" d="M11.574 15.625V13.375C11.574 13.266 11.539 13.176 11.469 13.105C11.399 13.035 11.31 12.999 11.201 12.999H8.969C8.86 12.999 8.771 13.034 8.701 13.105C8.631 13.175 8.596 13.265 8.596 13.375V15.625C8.596 15.734 8.631 15.824 8.701 15.895C8.771 15.965 8.86 16 8.969 16H11.201C11.31 16 11.399 15.965 11.469 15.894C11.539 15.824 11.574 15.734 11.574 15.625ZM14.55 7.75C14.55 7.063 14.335 6.426 13.905 5.84C13.475 5.254 12.938 4.801 12.295 4.481C11.651 4.16 10.992 4 10.318 4C8.435 4 6.997 4.832 6.005 6.496C5.889 6.684 5.92 6.848 6.098 6.988L7.633 8.16C7.687 8.207 7.761 8.23 7.854 8.23C7.978 8.23 8.075 8.183 8.144 8.09C8.555 7.559 8.888 7.199 9.144 7.012C9.407 6.824 9.741 6.73 10.144 6.73C10.516 6.73 10.847 6.832 11.138 7.035C11.429 7.238 11.574 7.469 11.574 7.727C11.574 8.024 11.497 8.262 11.342 8.442C11.187 8.621 10.924 8.797 10.552 8.97C10.064 9.189 9.616 9.527 9.209 9.984C8.802 10.441 8.598 10.931 8.598 11.455V11.877C8.598 11.986 8.633 12.076 8.703 12.147C8.773 12.217 8.862 12.253 8.971 12.253H11.203C11.312 12.253 11.401 12.218 11.471 12.147C11.541 12.077 11.576 11.987 11.576 11.877C11.576 11.729 11.659 11.535 11.826 11.297C11.993 11.059 12.204 10.865 12.459 10.717C12.707 10.577 12.897 10.465 13.029 10.383C13.161 10.301 13.339 10.164 13.564 9.973C13.788 9.782 13.961 9.594 14.082 9.411C14.203 9.227 14.311 8.991 14.408 8.702C14.504 8.413 14.553 8.097 14.553 7.753L14.55 7.75ZM19.015 10C19.015 11.633 18.616 13.139 17.818 14.518C17.02 15.897 15.937 16.989 14.569 17.793C13.2 18.598 11.706 19 10.086 19C8.466 19 6.972 18.598 5.604 17.793C4.236 16.988 3.153 15.897 2.355 14.518C1.557 13.139 1.157 11.633 1.157 10C1.157 8.367 1.556 6.861 2.354 5.482C3.152 4.103 4.235 3.011 5.603 2.207C6.971 1.403 8.466 1 10.086 1C11.706 1 13.2 1.402 14.568 2.207C15.936 3.012 17.019 4.103 17.817 5.482C18.616 6.861 19.015 8.367 19.015 10Z" fill="#999999"/>
</svg>
